<?xml version="1.0" encoding="iso-8859-1"?>
<!-- Generator: Adobe Illustrator 19.0.0, SVG Export Plug-In . SVG Version: 6.00 Build 0)  -->
<svg version="1.1" id="Layer_1" xmlns="http://www.w3.org/2000/svg" xmlns:xlink="http://www.w3.org/1999/xlink" x="0px" y="0px"
	 viewBox="0 0 512 512" style="enable-background:new 0 0 512 512;" xml:space="preserve">
<circle style="fill:#84CAFF;" cx="255.996" cy="255.996" r="255.996"/>
<path style="fill:#00A6FF;" d="M512,255.999c0-8.842-0.448-17.58-1.324-26.191L379.306,98.439L354.45,87.024l-14.774,32.17
	l-70.001-74.26h-27.352v95.489l35,30.263c-11.79,0-25.022,0-37.193,0l-82.583-83.661l-24.856,11.415l26.981,58.751l21.364,19.045
	c-11.668,6.991-16.758,20.328-19.222,38.524c-0.459,3.389-1.137,8.609-1.97,15.13l-24.854-28.871l-64.499-4.423l-1.871,27.288
	l81.752,81.673c-3.627,29.263-7.094,57.411-8.8,71.288h-6.971c-11.923,0-21.679,9.756-21.679,21.679v8.638
	c0,7.444,3.803,14.043,9.563,17.95l81.621,81.621c16.758,3.45,34.113,5.266,51.892,5.266C397.385,512,512,397.385,512,255.999z"/>
<path style="fill:#FF4F19;" d="M350.183,214.759c-3.741-27.639-13.54-44.074-43.256-44.074c-19.344,0-82.511,0-101.855,0
	c-29.716,0-39.514,16.434-43.256,44.074c-3.673,27.137-21.346,171.068-21.346,171.068h231.059
	C371.529,385.827,353.857,241.896,350.183,214.759z"/>
<path style="fill:#ED2400;" d="M371.529,385.827c0,0-17.672-143.932-21.346-171.068c-3.741-27.639-13.54-44.074-43.256-44.074
	c-9.671,0-30.3,0-50.928,0v215.141h115.53V385.827z"/>
<path style="fill:#FFFFFF;" d="M377.397,428.841H134.603c-11.923,0-21.679-9.756-21.679-21.679v-8.637
	c0-11.923,9.756-21.679,21.679-21.679h242.793c11.923,0,21.679,9.756,21.679,21.679v8.637
	C399.076,419.086,389.32,428.841,377.397,428.841z"/>
<path style="fill:#D8D8DA;" d="M377.397,376.845H255.999v51.997h121.397c11.923,0,21.679-9.756,21.679-21.679v-8.638
	C399.076,386.6,389.32,376.845,377.397,376.845z"/>
<rect x="242.319" y="44.93" style="fill:#FFFFFF;" width="27.355" height="95.492"/>
<rect x="255.996" y="44.93" style="fill:#D8D8DA;" width="13.678" height="95.492"/>
<rect x="144.94" y="89.802" transform="matrix(-0.9088 0.4173 -0.4173 -0.9088 353.728 166.9258)" style="fill:#FFFFFF;" width="27.356" height="64.652"/>
<g>
	
		<rect x="339.684" y="89.786" transform="matrix(0.9088 0.4173 -0.4173 0.9088 83.1916 -136.3139)" style="fill:#D8D8DA;" width="27.356" height="64.652"/>
	
		<rect x="396.529" y="180.114" transform="matrix(0.0684 0.9977 -0.9977 0.0684 594.0938 -211.3365)" style="fill:#D8D8DA;" width="27.356" height="64.653"/>
</g>
<rect x="88.139" y="180.111" transform="matrix(-0.0684 0.9977 -0.9977 -0.0684 320.7207 125.3881)" style="fill:#FFFFFF;" width="27.356" height="64.653"/>
<g>
</g>
<g>
</g>
<g>
</g>
<g>
</g>
<g>
</g>
<g>
</g>
<g>
</g>
<g>
</g>
<g>
</g>
<g>
</g>
<g>
</g>
<g>
</g>
<g>
</g>
<g>
</g>
<g>
</g>
</svg>
