<svg enable-background="new 0 0 140 140" height="512" viewBox="0 0 140 140" width="512" xmlns="http://www.w3.org/2000/svg"><circle cx="70" cy="70" fill="#efc84a" r="64"/><path d="m33.0450249 62.6665039 64.5253906 65.1020508c14.8233643-7.0872803 26.484314-19.7131348 32.322876-35.1970215l-37.4571533-37.75-.3680382-.3718872c-.9153442-.9247437-1.9910889-1.7402344-3.2174683-2.456604-4.656189-2.7039185-9.7620239-3.5201416-15.015564-2.847168-4.3529053.5476074-8.657959 1.5255127-13.0116005 2.2232056-.5504761.0871582-1.111084.2042236-1.6715088.2813721l-4.0390625-4.0808105c-.4378662-.4222412-1.0566406-.6553955-1.8464966-.6894531-1.1796875-.0560913-2.8411255.2053833-3.4950562.9820557-1.7507324 2.0810547-4.0637207 2.6591187-6.4172974 3.3470459-.6008301.1669312-1.1725464.4940186-1.7241211.8011475-3.1890869 1.7636108-5.642395 4.3410645-7.8171387 7.1999512-.0604248.0797119-.1207886.1594238-.1812134.2390747-1.2282715 1.6137085-1.4921875 2.3723755-.616333 3.1868896z" opacity=".1"/><g fill="#3a556a"><path d="m61.627964 79.1563339c.051487.4423294-1.0389977 1.0184021-1.5841751 1.543045-.4526291.4320374-.9772758.8332443-1.2550468 1.3578949-.1131401.2160492.3497849 1.0492935.5555382 1.0492935 1.7488022.0411224 3.7032967.3806152 5.1743279-.277771.8641357-.3909073.9772797-2.4586105 1.4299088-3.7753143.0308914-.0926056.0617218-.1851578.0720139-.288063z"/><path d="m80.4915466 79.1477356c-.9464493.2571793-1.7899857.3086014-2.4174805.6995087-.7406311.442337-1.4299088 1.1007156-1.8927689 1.8311157-.5966644.9257965-.1337357 1.4401398.9566803 1.4401398 2.1499481-.0205307 4.310257 0 6.4602051-.010231 1.9236603 0 2.0779953-.0926132 2.222023-2.0368652.0278778-.3800507.1018448-.6808624.2299271-.9229736z"/><path d="m61.6329231 71.3899918-14.3397636-4.6687698s.0485344.1250076.1515045.3486557c.7977066 1.7327881 4.8628426 9.3891449 14.9511833 10.7674408.0522385-.666916-.7629242-6.4473267-.7629242-6.4473267z"/><path d="m104.7037964 77.8783569c-2.1955338-1.7804489-4.937439-2.8898926-7.4451447-4.2800522-.4469757-.247818-.9522247-.3905945-1.4958344-.6080322l-2.4899368 4.382843c2.9448318.7877197 5.8187103 1.7951965 8.1334076 3.8790359 1.9890289 1.7906799 1.936409 3.6298294-.3347168 5.0603027-1.6703796 1.052124-3.5493393 1.9013138-5.4491425 2.4381409-7.2683334 2.0536957-14.7151108 1.8195038-22.1463089 1.3229828-3.6071091-.2410431-7.1941833-.7713394-10.7975845-1.087532-.4553909-.0399323-.9551773.4268875-1.4343643.6589508.3970642.2764511.7613525.7138824 1.1967163.8026657 2.4904404.5079422 4.9885406.9940414 7.5011444 1.3747177 7.6132202 1.1535797 15.250679 1.8677826 22.9317093.696434 4.1413651-.6315765 8.1699524-1.6489105 11.5416718-4.3327332 3.8856277-3.0928801 4.1396027-7.1845778.2883835-10.3077239z"/></g><path d="m95.8014145 72.995636-2.4894409 4.3822784c-.3909073-.1028519-.9155579.1954498-1.3578873.3600159-1.5019302.5349426-2.9729614 1.2241592-4.5160141 1.5945358-.7201004.1748581-1.1727295.4217377-1.4299088.8949661l-5.5549393-.9978714c-1.2756424-.8640747-2.2940445-1.5944748-3.3741684-2.2425613-.0514221-.0308304-.1028442-.0514221-.1645584-.0617218 0 0-.0102997 0-.0102997-.0102921-.2674713-.0617218-.6172562-.0102997-.9155579.0102921-2.8598175.2674713-5.7092743.6171951-8.5690918.8024216-.565773.0308228-.96698.1028442-1.1932602.4217377-.1131439.1440353-.1748657.3497849-.2057571.6274872l-4.3925667.3909149c-.1542664-1.1932678-.6068954-2.3556976-1.93396-3.0449142-2.5408592-1.3167648-5.0817795-2.7054825-7.4271851-4.3411484-1.4196091-.977272-2.2528534-2.9832535-3.7341843-3.6210403-1.3990173-.6068954-3.3741684.2571716-4.9891701-.0617218-1.4813309-.2983017-2.8906441-1.0286942-4.2897263-1.7179108-.2159843-.1028442-.4320335-.2057495-.6480865-.3085938-.4423332-.2160492-.8743668-.4629288-1.2961082-.7304001-.5555382-.3394241-1.1110115-.7098083-1.6767845-1.0390015-.3703804-.2056885-.7715263-.3600159-1.1521416-.5657692-.0102959-.0102959-.0205917-.0102959-.0308876-.0205307-2.376297-1.3578911-2.489439-1.9545555-.8332481-4.1662865.0617218-.0822525.1234398-.1542664.1851616-.2365799 2.160305-2.8700523 4.59832-5.4623947 7.7769699-7.2420273.5555382-.3086586 1.1213074-.6377869 1.7179108-.8127136 2.3557625-.6995087 4.6600418-1.2858734 6.3985443-3.3741035.6583862-.7818222 2.3145752-1.0492935 3.4976082-1.0081673 2.2013702.0823135 3.0860977 1.7899895 2.4791374 4.3719749 1.6767845.8641357 3.4255905.3600845 5.102375.0823135 4.3410835-.7201004 8.6410408-1.7179108 12.9924889-2.2939796 5.2566376-.6995087 10.3589478.0925484 15.0292892 2.7775002 4.474823 2.5717506 6.8820038 6.5219231 7.5609207 11.5934067.4217989 3.1890068.462929 6.3368263-.5554731 9.5874901z" fill="#64798a"/><circle cx="45.236" cy="56.098" fill="#3a556a" r="2.057"/><path d="m43.8623581 65.0643997c-.5349426.4834595-1.0904198.7509308-1.6562538.9566879-.565773.2056885-1.131546.3291855-1.7076149.3703156-.4217415.0411224-.8332443.0411224-1.244751-.0102997-.2159843-.1028442-.4320335-.2057495-.6480865-.3085938-.4423332-.2160492-.8743668-.4629288-1.2961082-.7304001.4423332-.27771.8743706-.4834595 1.3064079-.6377869.565773-.1954575 1.1316071-.3086014 1.7076759-.3600235.565773-.0514221 1.1521378-.0308914 1.7385063.0720139.5863647.1028443 1.1829681.2674103 1.8002243.6480866z" fill="#3a556a"/><path d="m35.2212524 61.8033791c0 .740696-.2777672 1.4196091-.7406349 1.93396-.0102959-.0102959-.0205917-.0102959-.0308876-.0205307-2.376297-1.3578911-2.489439-1.9545555-.8332481-4.1662865.0617218-.0822525.1234398-.1542664.1851616-.2365799.853836.5040512 1.419609 1.4299087 1.419609 2.4894371z" fill="#e56353"/><path d="m76.9041977 76.9149857c-.2674713-.0617218-.6172562-.0102997-.9155579.0102921-2.8598175.2674713-5.7092743.6171951-8.5690918.8024216-.565773.0308228-.96698.1028442-1.1932602.4217377 0-.0102997-.0102997-.0308304-.0102997-.0411301-.123436-.6069565-.1337357-1.2344513-.0205917-1.8414078.0168304-.0878601.0367126-.178093.0574951-.2699127.1630936-.7205353.6196136-1.3135605 1.2137527-1.7526093.9494629-.7016068 1.5242538-1.9688263 1.7634277-3.1724014.2348633-1.1866913.2914963-2.477272 1.1694031-3.3900452.5766449-.5995407 1.5056839-.8339233 2.1884003-.3586655.8397598.5845871.7467041 1.8328857.7467041 2.8537445.0000001 2.654068 1.3887788 5.2566452 3.5696183 6.7379761z" fill="#3a556a"/><path d="m48.8411331 50.8885727c.044548-.8978539.6446877-1.7814522 1.5251884-2.2510376.4339714-.2475662.9326286-.3814278 1.439785-.41119.5118599-.0323982 1.01017.0477829 1.5626335.298111.5739059.2516518.937664.7803802 1.1444397 1.2033119.0983925.2190018.2071152.4259453.2732162.7614174.0717773.3378563.0056305.7187195-.1354408.989521-.2788849.5544701-.6967201.8087578-1.0519562 1.0433273-.3715935.215107-.7399025.433609-1.1571426.6021271.1775742-.4134521.4040756-.7769241.627285-1.1437263.2329407-.3436928.4296303-.6919098.4535828-.9224014.0063515-.1177254-.0227051-.1701508-.055603-.2362671-.0386353-.0686874-.1300583-.2318077-.2299767-.377224-.1993828-.286808-.3605652-.4808197-.5676537-.5451164-.2070122-.0961266-.5341148-.197464-.8585472-.2130356-.3249626-.0286293-.6581421-.0013161-.9955254.0634155-.6666907.1506271-1.3421591.5158576-1.974285 1.1387672z" fill="#3a556a"/><circle cx="44.896" cy="55.661" fill="#ebf0f3" r=".6"/></svg>